:SAMPLES-PER-SECOND 30
:FULLY-SPECIFIED
:DEGREES
1142
root  40.8006 38.0611 6.4554 156.13 85.5007 165.255
RightUpLeg  3.78665 -5.03707 -3.71204
RightLeg  27.1605 1.68508 0.706269
RightFoot  -19.5344 -0.115147 0.218328
RightToes  6.35927e-011 1.30204e-014 -6.03759e-014
Spine  16.7439 -0.53486 8.54844
Spine1  8.50464 1.3639 -2.80972
HEad  -27.5073 0.753065 -5.89641
LeftShoulder1  0.0930792 3.27147 -33.9015
LeftArm  -5.80124 53.3776 -38.0336
LeftForeArm  8.64257 -6.0945 -6.80972
LeftHand  0.118323 9.75898 4.34468
RightShoulder  -1.46958 -7.12794 34.0084
RightArm  20.1617 -35.4438 34.6099
RightForeArm  0.788442 10.4894 7.26006
RightHand  0.0591058 -1.1327 2.21082
LeftUpLeg  -17.2519 12.8717 4.2049
LeftLeg  15.243 5.79352 1.86522
LeftFoot  1.07977 0.6011 -5.5828
LeftToes  -7.16024e-010 4.79583e-011 -5.98286e-011
1143
root  39.8534 38.5583 6.59107 153.99 84.6073 162.568
RightUpLeg  3.58105 -6.42965 -4.26055
RightLeg  23.0934 2.3135 0.833034
RightFoot  -15.9906 -0.112206 -0.105474
RightToes  6.35927e-011 1.30204e-014 -6.03759e-014
Spine  15.7926 -0.701725 8.39184
Spine1  7.93814 1.08931 -2.56222
HEad  -28.105 0.382764 -5.21814
LeftShoulder1  -0.0309658 3.58037 -34.2108
LeftArm  -3.58841 48.6772 -34.5631
LeftForeArm  7.10044 -5.926 -7.22266
LeftHand  0.10578 9.74712 4.0341
RightShoulder  -1.34904 -6.88458 33.3618
RightArm  21.1261 -39.2264 33.4141
RightForeArm  0.0376391 10.7775 7.24465
RightHand  -0.0425026 3.07889 -0.910705
LeftUpLeg  -16.1686 11.9073 4.22817
LeftLeg  21.0052 5.17482 2.55827
LeftFoot  -0.527474 0.483327 -5.08562
LeftToes  -7.16024e-010 4.79583e-011 -5.98286e-011
1144
root  38.8859 38.9092 6.67134 150.537 84.3195 158.302
RightUpLeg  2.62073 -7.89792 -4.82093
RightLeg  19.9115 3.56537 1.047
RightFoot  -13.145 -0.0924484 -0.150585
RightToes  6.35927e-011 1.30204e-014 -6.03759e-014
Spine  14.63 -0.779492 8.33517
Spine1  7.55554 1.01142 -2.59325
HEad  -28.3099 0.592313 -4.78331
LeftShoulder1  -0.16978 3.92426 -34.266
LeftArm  -2.60852 43.0032 -32.544
LeftForeArm  5.64636 -6.18608 -7.53294
LeftHand  0.0975417 9.31788 4.16793
RightShoulder  -1.21204 -6.61518 32.4077
RightArm  22.2074 -40.9709 32.0067
RightForeArm  -0.503205 11.5204 7.09272
RightHand  -0.0795485 4.15971 -1.20669
LeftUpLeg  -14.9613 10.6187 4.47038
LeftLeg  26.838 4.79018 2.95828
LeftFoot  -2.35418 0.433711 -5.33993
LeftToes  -7.16024e-010 4.79583e-011 -5.98286e-011
1145
root  37.8839 39.1027 6.69727 147.458 84.376 154.441
RightUpLeg  1.15047 -9.28159 -5.25698
RightLeg  17.7308 5.16501 1.37492
RightFoot  -11.1332 -0.0764327 0.400258
RightToes  6.35927e-011 1.30204e-014 -6.03759e-014
Spine  13.6212 -0.96041 8.78191
Spine1  7.08931 1.03719 -3.1562
HEad  -27.7437 1.13208 -4.59566
LeftShoulder1  -0.218759 4.04989 -33.9448
LeftArm  -2.64306 36.9359 -31.8001
LeftForeArm  4.64542 -6.65034 -7.69523
LeftHand  0.0893363 8.95086 4.26652
RightShoulder  -1.0541 -6.29846 31.1555
RightArm  22.546 -41.119 30.8347
RightForeArm  -0.833711 12.4498 6.71122
RightHand  0.0327277 2.64312 0.210789
LeftUpLeg  -13.3278 9.61063 4.68106
LeftLeg  32.1424 3.71352 2.8524
LeftFoot  -4.28257 0.353076 -5.2916
LeftToes  -7.16024e-010 4.79583e-011 -5.98286e-011
1146
root  36.8391 39.186 6.69247 146.209 84.662 152.668
RightUpLeg  -0.483305 -10.0303 -5.34624
RightLeg  16.2573 6.29088 1.79955
RightFoot  -9.26125 -0.0785527 0.900495
RightToes  6.35927e-011 1.30204e-014 -6.03759e-014
Spine  12.907 -1.30127 9.39552
Spine1  6.73033 0.918868 -3.7235
HEad  -26.6688 1.93234 -4.54778
LeftShoulder1  -0.344122 4.35228 -34.3144
LeftArm  -2.59937 29.5972 -30.9331
LeftForeArm  3.64022 -6.67702 -7.991
LeftHand  0.0778097 8.66947 4.18354
RightShoulder  -0.912881 -6.00557 29.9088
RightArm  21.8051 -38.9208 29.9893
RightForeArm  -1.99228 12.2951 6.61195
RightHand  -0.0659907 3.40532 -0.975719
LeftUpLeg  -10.9802 8.68494 5.00353
LeftLeg  36.444 2.3094 2.19046
LeftFoot  -5.70942 0.272972 -4.85694
LeftToes  -7.16024e-010 4.79583e-011 -5.98286e-011
1147
root  35.7581 39.1831 6.67363 147.23 85.1273 153.475
RightUpLeg  -2.21048 -10.2504 -5.02028
RightLeg  15.4653 6.83449 2.17651
RightFoot  -7.39668 -0.0864887 1.05825
RightToes  6.35927e-011 1.30204e-014 -6.03759e-014
Spine  12.2394 -1.73363 9.67187
Spine1  6.9474 0.527756 -3.67301
HEad  -25.5366 2.95859 -4.55901
LeftShoulder1  -0.607422 4.96016 -35.5107
LeftArm  -2.85982 20.7163 -30.1296
LeftForeArm  2.79955 -5.92198 -8.24332
LeftHand  0.0647818 8.17052 4.29388
RightShoulder  -0.836287 -5.84878 29.0612
RightArm  19.8996 -33.6324 29.424
RightForeArm  -3.85279 10.4725 6.85687
RightHand  -0.415291 6.24364 -4.49011
LeftUpLeg  -7.8577 7.80154 5.47737
LeftLeg  39.5211 1.05957 1.31326
LeftFoot  -6.61179 0.243126 -4.93792
LeftToes  -7.16024e-010 4.79583e-011 -5.98286e-011
1148
root  34.6381 39.1007 6.63801 149.522 85.678 155.75
RightUpLeg  -4.17412 -10.1356 -4.47493
RightLeg  15.3948 7.0015 2.40631
RightFoot  -5.89171 -0.10738 1.40702
RightToes  6.35927e-011 1.30204e-014 -6.03759e-014
Spine  11.4866 -2.11268 9.56974
Spine1  7.5434 0.031087 -3.13552
HEad  -24.2946 3.95181 -4.71123
LeftShoulder1  -0.734216 5.23911 -36.1265
LeftArm  -4.41094 11.8755 -30.8681
LeftForeArm  2.34221 -4.91281 -7.90729
LeftHand  0.0635631 7.88776 4.62621
RightShoulder  -0.797613 -5.77572 28.4891
RightArm  16.9186 -26.4876 29.4331
RightForeArm  -5.39995 8.13375 6.7286
RightHand  -0.644678 6.9735 -6.41459
LeftUpLeg  -4.07912 7.00438 5.86026
LeftLeg  41.0206 -0.00969677 0.373315
LeftFoot  -7.57428 0.229794 -5.60928
LeftToes  -7.16024e-010 4.79583e-011 -5.98286e-011
1149
root  33.4736 38.962 6.58085 151.347 86.2392 157.649
RightUpLeg  -6.38217 -9.88397 -3.96625
RightLeg  15.8176 7.0812 2.52035
RightFoot  -4.50139 -0.157051 2.10999
RightToes  6.35927e-011 1.30204e-014 -6.03759e-014
Spine  10.8982 -2.34631 9.277
Spine1  7.74763 -0.366513 -2.65969
HEad  -22.5815 4.79685 -5.14181
LeftShoulder1  -0.507049 4.73052 -35.0223
LeftArm  -6.84112 4.70995 -33.5934
LeftForeArm  1.71599 -4.73082 -6.97168
LeftHand  0.0745028 8.0217 4.89018
RightShoulder  -0.710012 -5.57641 27.5797
RightArm  12.9684 -20.0316 30.4759
RightForeArm  -6.93912 7.31781 5.83242
RightHand  -0.536387 5.4272 -6.05665
LeftUpLeg  0.101252 6.31255 5.83316
LeftLeg  40.686 -1.32234 -0.835512
LeftFoot  -8.43425 0.209698 -6.25543
LeftToes  -7.16024e-010 4.79583e-011 -5.98286e-011
1150
root  32.2741 38.7845 6.51301 153.048 86.6743 159.462
RightUpLeg  -8.69683 -9.66322 -3.53438
RightLeg  16.4148 7.18369 2.59506
RightFoot  -2.76492 -0.211659 2.57956
RightToes  6.35927e-011 1.30204e-014 -6.03759e-014
Spine  10.6027 -2.50105 8.68803
Spine1  7.36536 -0.746769 -2.26297
HEad  -20.5128 5.54982 -5.53448
LeftShoulder1  -0.115508 3.80031 -32.6537
LeftArm  -8.81495 -0.941865 -37.0241
LeftForeArm  1.02933 -6.11296 -6.16034
LeftHand  0.0675595 7.7552 5.02664
RightShoulder  -0.548509 -5.1691 26.1424
RightArm  8.42453 -15.5047 32.5074
RightForeArm  -9.65892 9.37584 4.71374
RightHand  -0.508108 5.24842 -5.84533
LeftUpLeg  4.37702 5.57991 5.36979
LeftLeg  38.6552 -3.23114 -2.3915
LeftFoot  -8.70992 0.218277 -7.20048
LeftToes  -7.16024e-010 4.79583e-011 -5.98286e-011
1151
root  31.0492 38.59 6.45507 157.388 86.6298 163.81
RightUpLeg  -10.918 -9.55396 -3.15402
RightLeg  16.5976 7.04181 2.56138
RightFoot  -0.771898 -0.248814 2.63741
RightToes  6.35927e-011 1.30204e-014 -6.03759e-014
Spine  10.2584 -2.70935 7.47279
Spine1  6.9919 -1.3725 -1.45743
HEad  -18.7987 6.19672 -5.80282
LeftShoulder1  0.156623 3.07405 -30.1484
LeftArm  -9.38699 -6.22871 -39.7112
LeftForeArm  2.05674 -9.22727 -5.92967
LeftHand  0.0318557 6.86629 4.9211
RightShoulder  -0.394352 -4.74779 24.7604
RightArm  4.68024 -12.1127 34.7956
RightForeArm  -12.8948 14.2972 4.14639
RightHand  -0.583912 6.9364 -5.84451
LeftUpLeg  8.40294 4.57932 4.69023
LeftLeg  35.0684 -5.53542 -3.80106
LeftFoot  -9.39371 0.200998 -8.7485
LeftToes  -7.16024e-010 4.79583e-011 -5.98286e-011
1152
root  29.7865 38.424 6.4077 163.795 85.7962 169.979
RightUpLeg  -12.7769 -9.63809 -2.99718
RightLeg  15.5741 6.22915 2.3072
RightFoot  1.35646 -0.324672 2.99022
RightToes  6.35927e-011 1.30204e-014 -6.03759e-014
Spine  9.68731 -2.98489 5.62562
Spine1  6.897 -2.29035 -0.14021
HEad  -18.2168 6.44263 -6.43469
LeftShoulder1  0.284041 2.67896 -28.2471
LeftArm  -7.50042 -11.7358 -41.3168
LeftForeArm  5.32968 -14.1796 -5.60662
LeftHand  0.00151245 6.20139 4.33937
RightShoulder  -0.325615 -4.55191 23.9967
RightArm  1.27995 -8.72201 36.5157
RightForeArm  -12.9343 20.8666 4.85979
RightHand  -0.542255 7.71585 -5.1502
LeftUpLeg  11.7308 3.39656 3.94828
LeftLeg  29.8731 -7.33975 -4.20735
LeftFoot  -12.2389 0.00585428 -9.21949
LeftToes  -7.16024e-010 4.79583e-011 -5.98286e-011
1153
root  28.4452 38.3013 6.3527 166.812 84.3607 172.635
RightUpLeg  -14.0818 -10.0698 -3.37354
RightLeg  13.247 4.86672 1.99276
RightFoot  3.68507 -0.536977 4.24264
RightToes  6.35927e-011 1.30204e-014 -6.03759e-014
Spine  9.46887 -3.17852 3.39359
Spine1  6.68435 -3.19749 1.17102
HEad  -18.3563 6.09142 -6.10232
LeftShoulder1  0.379599 2.36419 -27.1316
LeftArm  -4.37431 -17.4558 -42.1761
LeftForeArm  10.6844 -20.4615 -4.65381
LeftHand  -0.0145551 5.80708 3.5608
RightShoulder  -0.331108 -4.57392 23.8654
RightArm  -1.31981 -5.02649 37.6609
RightForeArm  -10.1149 27.8171 6.54311
RightHand  -0.467878 7.32721 -4.62439
LeftUpLeg  13.8198 2.5801 3.00613
LeftLeg  23.704 -7.38568 -3.24302
LeftFoot  -16.8007 -0.207964 -6.69869
LeftToes  -7.16024e-010 4.79583e-011 -5.98286e-011
1154
root  26.988 38.1909 6.30136 163.248 82.8447 168.878
RightUpLeg  -14.8867 -10.7827 -4.59366
RightLeg  10.3391 3.73005 1.90256
RightFoot  5.3585 -0.875296 6.21434
RightToes  6.35927e-011 1.30204e-014 -6.03759e-014
Spine  10.1747 -3.09777 0.595783
Spine1  6.3757 -3.73041 2.0507
HEad  -19.5573 5.31904 -5.50807
LeftShoulder1  0.474364 2.05014 -26.445
LeftArm  -4.36847 -23.41 -42.5529
LeftForeArm  19.0472 -26.7014 -4.63488
LeftHand  -0.0318205 5.16219 3.45029
RightShoulder  -0.340285 -4.59581 24.1077
RightArm  -2.40853 -1.03016 38.8418
RightForeArm  -7.21978 34.1623 8.03538
RightHand  -0.520931 7.23824 -5.13122
LeftUpLeg  14.0623 2.76707 1.49464
LeftLeg  18.8317 -5.76202 -1.78128
LeftFoot  -20.2578 -0.0473162 -2.10136
LeftToes  -7.16024e-010 4.79583e-011 -5.98286e-011
1155
root  25.4376 38.0936 6.29234 154.682 81.479 160.292
RightUpLeg  -15.2609 -11.2115 -6.64437
RightLeg  6.98144 3.0285 1.93391
RightFoot  4.81959 -1.1849 8.59153
RightToes  6.35927e-011 1.30204e-014 -6.03759e-014
Spine  11.3779 -2.68984 -2.85562
Spine1  6.68077 -3.77623 2.51778
HEad  -21.6057 4.35702 -4.82472
LeftShoulder1  0.541401 1.80938 -25.7461
LeftArm  -5.59336 -29.4515 -42.7018
LeftForeArm  25.1858 -32.0773 -5.6306
LeftHand  -0.0469639 4.70617 4.36075
RightShoulder  -0.300766 -4.45576 24.4387
RightArm  -3.01921 3.2473 40.6224
RightForeArm  -4.4812 38.7575 9.25779
RightHand  -0.648507 7.47719 -6.19795
LeftUpLeg  12.1334 3.76441 -0.685918
LeftLeg  17.5765 -4.54299 -0.944479
LeftFoot  -21.1366 0.268018 1.71374
LeftToes  -7.16024e-010 4.79583e-011 -5.98286e-011
1156
root  23.9213 38.0919 6.32747 145.469 80.3744 150.951
RightUpLeg  -14.8553 -11.3826 -8.77302
RightLeg  2.18052 2.32867 1.77153
RightFoot  2.31028 -1.34755 11.3906
RightToes  6.35927e-011 1.30204e-014 -6.03759e-014
Spine  12.1288 -2.06 -5.92564
Spine1  7.625 -3.35638 2.29524
HEad  -23.3508 3.27346 -3.8739
LeftShoulder1  0.59511 1.60043 -25.0367
LeftArm  -5.63934 -34.7535 -42.7274
LeftForeArm  25.5676 -35.8995 -6.58471
LeftHand  -0.059047 4.58821 5.6814
RightShoulder  -0.219828 -4.18992 24.54
RightArm  -2.65171 7.31339 43.3169
RightForeArm  -2.65175 40.8283 9.83723
RightHand  -0.71267 7.61927 -6.7068
LeftUpLeg  8.93318 3.77361 -3.21637
LeftLeg  18.7768 -3.72186 -0.868574
LeftFoot  -20.1172 0.357771 3.07204
LeftToes  -7.16024e-010 4.79583e-011 -5.98286e-011
